<svg width="270" height="44" viewBox="0 0 270 44" fill="none" xmlns="http://www.w3.org/2000/svg">
<path d="M200.869 3.46773L203.399 5.64545L206.713 5.24795L205.423 8.32681L206.826 11.356L203.499 11.0811L201.051 13.3507L200.285 10.102L197.37 8.47551L200.223 6.74255L200.869 3.46773Z" fill="white" fill-opacity="0.25"/>
<path d="M187.025 25.1592L190.025 34.3432L198.828 38.3257L191.021 44.0176L189.954 53.6202L182.128 47.954L172.665 49.9062L175.636 40.7125L170.855 32.3164L180.517 32.3005L187.025 25.1592Z" fill="#3CB177"/>
<path opacity="0.1" d="M256.377 1.61658L241.807 20.7398L217.862 22.8907L231.547 42.6571L226.193 66.0947L249.221 59.1878L269.857 71.5221L270.404 47.487L288.511 31.6724L265.822 23.7248L256.377 1.61658Z" fill="url(#paint0_radial_27357_150294)"/>
<path d="M85.8264 26.4275L91.3298 31.8243L99.0263 31.4043L95.5944 38.3061L98.3722 45.4961L90.7476 44.3649L84.7679 49.2286L83.4877 41.6277L77.0142 37.4435L83.8475 33.8772L85.8264 26.4275Z" fill="#3CB177"/>
<path d="M73.3281 2.50994L73.2708 6.95834L76.5152 10.0023L72.2668 11.3224L70.3743 15.3486L67.806 11.7161L63.3921 11.1604L66.0531 7.59531L65.2176 3.2257L69.4306 4.65484L73.3281 2.50994Z" fill="white" fill-opacity="0.25"/>
<path opacity="0.1" d="M15.8152 1.02239L28.2648 17.3624L48.7247 19.2003L37.0316 36.0899L41.6061 56.1165L21.9298 50.2148L4.29698 60.754L3.82949 40.2169L-11.6427 26.704L7.74473 19.9131L15.8152 1.02239Z" fill="url(#paint1_radial_27357_150294)"/>
<defs>
<radialGradient id="paint0_radial_27357_150294" cx="0" cy="0" r="1" gradientUnits="userSpaceOnUse" gradientTransform="translate(275.776 41.6834) rotate(-172.915) scale(61.588 56.1371)">
<stop stop-color="white" stop-opacity="0"/>
<stop offset="1" stop-color="white"/>
</radialGradient>
<radialGradient id="paint1_radial_27357_150294" cx="0" cy="0" r="1" gradientUnits="userSpaceOnUse" gradientTransform="translate(-0.76099 35.2579) rotate(-7.08548) scale(52.6246 47.967)">
<stop stop-color="white" stop-opacity="0"/>
<stop offset="1" stop-color="white"/>
</radialGradient>
</defs>
</svg>
